:SAMPLES-PER-SECOND 30
:FULLY-SPECIFIED
:DEGREES
471
root  -43.2827 38.1297 -29.7287 -1.99351 -86.7516 43.3607
RightUpLeg  -74.8648 -21.7457 31.6696
RightLeg  31.4991 6.55907 4.07646
RightFoot  -2.05102 1.18417 -14.6439
RightToes  0.00048216 0.542163 -0.142577
Spine  68.4478 -4.97945 7.39872
Spine1  9.68812 1.45977 -5.83324
HEad  -32.9279 -4.26503 -1.31934
LeftShoulder1  5.43634 -27.6208 -10.0053
LeftArm  -83.927 -63.0912 29.1486
LeftForeArm  14.8629 -16.7253 -0.916468
LeftHand  -0.25398 0.0180481 5.50724
RightShoulder  2.35003 14.3317 5.39827
RightArm  -66.2657 52.6383 -18.213
RightForeArm  -26.2587 13.9055 3.9739
RightHand  -3.32889 11.5361 -23.012
LeftUpLeg  -72.7207 30.5364 -30.0121
LeftLeg  32.4384 -2.36709 -1.2666
LeftFoot  -6.75989 -0.0174645 1.55877
LeftToes  1.06244e-005 4.65856e-005 -8.18505e-006
472
root  -43.3067 38.1266 -29.6928 -5.08356 -86.7872 46.3297
RightUpLeg  -74.6898 -21.7795 31.3715
RightLeg  31.5055 6.32703 3.92573
RightFoot  -2.33179 1.13295 -14.483
RightToes  0.00048216 0.542163 -0.142577
Spine  68.3747 -5.02409 7.40092
Spine1  9.925 1.4678 -5.77898
HEad  -33.5646 -3.7795 -1.54109
LeftShoulder1  5.20068 -27.188 -9.43892
LeftArm  -85.0272 -63.3752 28.5063
LeftForeArm  15.0034 -17.2793 -1.06292
LeftHand  -0.25398 0.0180481 5.50724
RightShoulder  2.41921 14.5685 5.63323
RightArm  -66.6813 52.8418 -18.7267
RightForeArm  -27.3228 13.4857 3.91372
RightHand  -3.4177 11.7786 -23.2682
LeftUpLeg  -72.3735 30.4151 -29.782
LeftLeg  32.5127 -2.08519 -1.07696
LeftFoot  -6.98885 -0.00978173 1.43515
LeftToes  1.06244e-005 4.65856e-005 -8.18505e-006
473
root  -43.3135 38.1116 -29.6303 -4.92236 -86.8464 46.2477
RightUpLeg  -74.8358 -21.8061 31.3999
RightLeg  31.6088 6.27345 3.90671
RightFoot  -2.45418 1.07822 -13.9996
RightToes  0.00048216 0.542163 -0.142577
Spine  68.3185 -5.13246 7.50944
Spine1  10.029 1.48566 -5.74977
HEad  -34.2972 -3.39781 -1.89603
LeftShoulder1  5.11681 -26.9276 -9.29908
LeftArm  -86.5394 -63.4437 28.3059
LeftForeArm  15.1485 -17.7451 -1.15341
LeftHand  -0.25398 0.0180481 5.50724
RightShoulder  2.48579 14.6902 5.94457
RightArm  -66.7268 52.8848 -19.7217
RightForeArm  -28.5191 13.3978 4.07851
RightHand  -3.44993 11.8858 -23.3381
LeftUpLeg  -72.2214 30.0447 -29.3822
LeftLeg  32.6262 -1.6702 -0.795955
LeftFoot  -7.25823 -0.00233558 1.32447
LeftToes  1.06244e-005 4.65856e-005 -8.18505e-006
474
root  -43.303 38.0894 -29.5477 -4.0059 -87.0068 45.479
RightUpLeg  -75.1747 -21.8407 31.648
RightLeg  31.8348 6.31254 3.96722
RightFoot  -2.57263 1.00448 -13.2505
RightToes  0.00048216 0.542163 -0.142577
Spine  68.3762 -5.19834 7.58391
Spine1  9.97767 1.45902 -5.7172
HEad  -34.844 -3.20688 -2.211
LeftShoulder1  5.15679 -26.9012 -9.46082
LeftArm  -87.684 -63.1235 28.5666
LeftForeArm  15.9679 -18.2552 -1.34026
LeftHand  -0.25398 0.0180481 5.50724
RightShoulder  2.48054 14.4457 6.12183
RightArm  -66.8715 53.0675 -20.4347
RightForeArm  -28.9092 13.9281 4.32489
RightHand  -3.50993 12.0859 -23.4667
LeftUpLeg  -72.1816 29.5635 -28.8408
LeftLeg  32.8438 -1.13312 -0.430885
LeftFoot  -7.52201 0.00411596 1.23943
LeftToes  1.06244e-005 4.65856e-005 -8.18505e-006
475
root  -43.2736 38.0633 -29.4511 -4.50209 -87.2533 46.0879
RightUpLeg  -75.478 -21.7947 31.8011
RightLeg  32.0656 6.28979 3.9875
RightFoot  -2.68851 0.926207 -12.4197
RightToes  0.00048216 0.542163 -0.142577
Spine  68.514 -5.21751 7.50727
Spine1  9.99142 1.33573 -5.71543
HEad  -35.0371 -2.92405 -2.31285
LeftShoulder1  5.14351 -26.8132 -9.46816
LeftArm  -88.8199 -62.5041 29.2607
LeftForeArm  16.9376 -18.8545 -1.62975
LeftHand  -0.25398 0.0180481 5.50724
RightShoulder  2.40536 14.0826 5.96337
RightArm  -67.6048 53.3237 -20.6638
RightForeArm  -28.4911 14.796 4.44304
RightHand  -3.58473 12.3286 -23.6314
LeftUpLeg  -72.2293 29.1297 -28.3451
LeftLeg  33.1971 -0.583892 -0.0533146
LeftFoot  -7.71412 0.00899224 1.18998
LeftToes  1.06244e-005 4.65856e-005 -8.18505e-006
476
root  -43.2215 38.0299 -29.3388 -6.49804 -87.5186 48.1602
RightUpLeg  -75.6951 -21.6017 31.689
RightLeg  32.2534 6.19152 3.95026
RightFoot  -2.64557 0.886568 -11.8401
RightToes  0.00048216 0.542163 -0.142577
Spine  68.6208 -5.24113 7.34183
Spine1  10.2207 1.18404 -5.76673
HEad  -34.7474 -2.44159 -2.31163
LeftShoulder1  5.06271 -26.5127 -9.36389
LeftArm  -90.6366 -61.9345 30.3646
LeftForeArm  17.4417 -19.454 -1.93315
LeftHand  -0.25398 0.0180481 5.50724
RightShoulder  2.25748 13.6598 5.37374
RightArm  -69.3217 53.6983 -20.4361
RightForeArm  -27.5492 15.492 4.31818
RightHand  -3.66925 12.6541 -23.7482
LeftUpLeg  -72.3764 28.7767 -28.0302
LeftLeg  33.6411 -0.105564 0.283858
LeftFoot  -7.87417 0.0106946 1.20553
LeftToes  1.06244e-005 4.65856e-005 -8.18505e-006
477
root  -43.1396 37.9848 -29.2102 -9.117 -87.7687 50.8065
RightUpLeg  -75.9114 -21.3294 31.408
RightLeg  32.4803 6.02063 3.86878
RightFoot  -2.47189 0.88731 -11.6028
RightToes  0.00048216 0.542163 -0.142577
Spine  68.6352 -5.24158 7.23332
Spine1  10.6409 1.12605 -5.7839
HEad  -33.9361 -2.02467 -2.44328
LeftShoulder1  5.00303 -26.1466 -9.37787
LeftArm  -92.7073 -61.6998 31.6719
LeftForeArm  17.6149 -19.9604 -2.21428
LeftHand  -0.25398 0.0180481 5.50724
RightShoulder  2.07893 13.1197 4.64851
RightArm  -71.9019 54.123 -20.0075
RightForeArm  -26.2686 16.0498 4.06082
RightHand  -3.74051 13.0126 -23.7395
LeftUpLeg  -72.5824 28.48 -27.8549
LeftLeg  34.1387 0.27017 0.558439
LeftFoot  -8.09723 0.0125876 1.27561
LeftToes  1.06244e-005 4.65856e-005 -8.18505e-006
478
root  -43.0174 37.925 -29.0689 -12.3004 -88.0121 53.8892
RightUpLeg  -76.1111 -21.0391 31.0164
RightLeg  32.7965 5.68076 3.68182
RightFoot  -2.30574 0.894876 -11.471
RightToes  0.00048216 0.542163 -0.142577
Spine  68.5581 -5.15825 7.25223
Spine1  11.171 1.18503 -5.68242
HEad  -32.7949 -1.81726 -2.71651
LeftShoulder1  4.92216 -25.8235 -9.28347
LeftArm  -93.9794 -61.8244 32.8064
LeftForeArm  17.6127 -20.3544 -2.48601
LeftHand  -0.25398 0.0180481 5.50724
RightShoulder  1.96948 12.7142 4.24213
RightArm  -74.5429 54.191 -19.9063
RightForeArm  -24.7769 16.6964 3.89054
RightHand  -3.75509 13.1879 -23.6144
LeftUpLeg  -72.7992 28.2456 -27.6984
LeftLeg  34.7653 0.514124 0.747251
LeftFoot  -8.3829 0.0151906 1.36432
LeftToes  1.06244e-005 4.65856e-005 -8.18505e-006
479
root  -42.8445 37.8507 -28.9172 -16.7578 -88.2255 58.0855
RightUpLeg  -76.2007 -20.6682 30.3507
RightLeg  33.1588 5.13803 3.35382
RightFoot  -2.1203 0.896506 -11.2461
RightToes  0.00048216 0.542163 -0.142577
Spine  68.4115 -5.02109 7.36197
Spine1  11.7296 1.29316 -5.50222
HEad  -31.6294 -1.64526 -2.96447
LeftShoulder1  4.72136 -25.4216 -8.77869
LeftArm  -94.7275 -62.2819 33.678
LeftForeArm  17.2609 -20.5807 -2.68131
LeftHand  -0.25398 0.0180481 5.50724
RightShoulder  1.95848 12.6962 4.17957
RightArm  -76.4619 53.7198 -20.4589
RightForeArm  -23.4448 17.0777 3.77583
RightHand  -3.66091 13.0495 -23.2127
LeftUpLeg  -73.0051 28.0261 -27.4658
LeftLeg  35.6013 0.57376 0.807386
LeftFoot  -8.62679 0.0164967 1.49355
LeftToes  1.06244e-005 4.65856e-005 -8.18505e-006
480
root  -42.6172 37.7666 -28.7515 -22.5267 -88.3646 63.4808
RightUpLeg  -76.2044 -20.2246 29.3947
RightLeg  33.51 4.52766 2.96653
RightFoot  -1.8565 0.901982 -10.9779
RightToes  0.00048216 0.542163 -0.142577
Spine  68.2511 -4.92171 7.47299
Spine1  12.2119 1.38753 -5.34114
HEad  -30.5957 -1.41181 -3.15665
LeftShoulder1  4.45263 -24.8225 -8.11876
LeftArm  -96.3144 -63.0945 34.7501
LeftForeArm  16.5837 -20.4246 -2.60711
LeftHand  -0.25398 0.0180481 5.50724
RightShoulder  1.97578 12.8796 4.14536
RightArm  -77.7067 53.1767 -21.4596
RightForeArm  -22.9691 16.7172 3.4688
RightHand  -3.48258 12.7901 -22.4389
LeftUpLeg  -73.1055 27.6666 -27.0028
LeftLeg  36.5975 0.351488 0.649303
LeftFoot  -8.77731 0.0152033 1.67917
LeftToes  1.06244e-005 4.65856e-005 -8.18505e-006
481
root  -42.3324 37.6782 -28.5653 -29.1839 -88.4503 69.6246
RightUpLeg  -76.2045 -19.9273 28.5067
RightLeg  33.8086 4.00026 2.62228
RightFoot  -1.57046 0.920933 -10.8536
RightToes  0.00048216 0.542163 -0.142577
Spine  68.1625 -4.9092 7.50976
Spine1  12.5497 1.42455 -5.28933
HEad  -29.6755 -1.23502 -3.34611
LeftShoulder1  4.22292 -24.166 -7.61976
LeftArm  -98.5173 -64.0537 36.4131
LeftForeArm  15.6437 -19.6301 -2.06928
LeftHand  -0.25398 0.0180481 5.50724
RightShoulder  1.96289 12.932 4.01286
RightArm  -78.5413 53.1356 -22.5693
RightForeArm  -23.5924 15.6611 2.9303
RightHand  -3.49558 13.0091 -22.2663
LeftUpLeg  -72.8901 27.0349 -26.0298
LeftLeg  37.6739 -0.222916 0.188156
LeftFoot  -8.90727 0.0146124 1.83339
LeftToes  1.06244e-005 4.65856e-005 -8.18505e-006
482
root  -41.9797 37.583 -28.35 -37.4264 -88.5611 77.0412
RightUpLeg  -76.1001 -19.9316 27.9063
RightLeg  34.0316 3.63124 2.37751
RightFoot  -1.21875 0.965052 -10.943
RightToes  0.00048216 0.542163 -0.142577
Spine  68.1804 -4.97439 7.48457
Spine1  12.7738 1.38466 -5.43169
HEad  -28.8351 -1.1663 -3.38875
LeftShoulder1  4.00275 -23.752 -6.98332
LeftArm  -99.0938 -64.7624 38.4364
LeftForeArm  14.0214 -18.0694 -1.07931
LeftHand  -0.25398 0.0180481 5.50724
RightShoulder  1.92864 12.8903 3.81095
RightArm  -78.1276 53.5727 -23.8662
RightForeArm  -24.5749 13.8133 2.31596
RightHand  -4.07976 14.2153 -24.2431
LeftUpLeg  -72.2036 26.1317 -24.3605
LeftLeg  38.8575 -0.986892 -0.474623
LeftFoot  -9.10071 0.0176477 1.89592
LeftToes  1.06244e-005 4.65856e-005 -8.18505e-006
483
root  -41.5484 37.4831 -28.0945 -47.8636 -88.7117 86.235
RightUpLeg  -75.6655 -20.1278 27.3142
RightLeg  34.1233 3.4505 2.25414
RightFoot  -0.641253 1.03514 -11.0537
RightToes  0.00048216 0.542163 -0.142577
Spine  68.2537 -5.08975 7.48295
Spine1  12.9206 1.31536 -5.70687
HEad  -28.0487 -1.1813 -3.14361
LeftShoulder1  3.73653 -23.7285 -5.90761
LeftArm  -97.2393 -65.1951 40.6528
LeftForeArm  11.8851 -15.6966 0.0138738
LeftHand  -0.25398 0.0180481 5.50724
RightShoulder  1.88166 13.0958 3.32758
RightArm  -75.7657 54.0376 -25.7312
RightForeArm  -25.2481 10.5056 1.92131
RightHand  -5.16262 15.8236 -28.1484
LeftUpLeg  -71.0871 24.9874 -22.1755
LeftLeg  40.103 -1.56498 -1.02768
LeftFoot  -9.30731 0.0210963 1.96498
LeftToes  1.06244e-005 4.65856e-005 -8.18505e-006
